<svg width="330" height="100" viewBox="0 0 330 100" fill="none" shape-rendering="geometricPrecision" xmlns="http://www.w3.org/2000/svg" aria-label="Take the colourful path" role="img"><path d="M34.4154 1.4026V14.587H34.3686C31.0024 6.85714 27.1219 2.72727 22.7271 2.1974V34.3169H26.9349V35.0649H8.23357V34.3169H12.4414V2.1974C8.07773 2.72727 4.21279 6.85714 0.846558 14.587H0.799805V1.4026H34.4154Z" fill="white"/><path d="M56.0862 34.3169H58.4239V35.0649H46.7356V32.4C44.2733 34.4883 41.8577 35.5325 39.4888 35.5325C38.772 35.5325 38.0083 35.3922 37.1979 35.1117C36.4187 34.8623 35.7486 34.3636 35.1875 33.6156C34.6577 32.8364 34.3927 31.9169 34.3927 30.8571C34.3927 28.7377 35.4681 26.9922 37.6187 25.6208C39.8005 24.2182 42.8395 23.2987 46.7356 22.8623C46.7356 20.3377 46.2525 18.4208 45.2862 17.1117C44.32 15.8026 42.933 15.1481 41.1252 15.1481C40.0655 15.1481 39.1304 15.3039 38.32 15.6156C37.5096 15.9273 36.7304 16.3636 35.9824 16.9247L35.7486 16.6909C37.3694 14.8831 39.0992 13.5273 40.9382 12.6234C42.7772 11.6883 44.8187 11.2208 47.0629 11.2208C50.0239 11.2208 52.2681 12.0779 53.7953 13.7922C55.3226 15.4753 56.0862 18 56.0862 21.3662V34.3169ZM45.6603 31.8857L46.7356 31.7455V23.4701C44.1486 24.2182 42.8551 25.9013 42.8551 28.5195C42.8551 29.6104 43.0888 30.4519 43.5564 31.0442C44.0551 31.6052 44.7564 31.8857 45.6603 31.8857Z" fill="white"/><path d="M88.5272 34.3169H90.444V35.0649H78.8025L71.8362 24.1714V34.3169H73.2388V35.0649H60.1479V34.3169H62.4856V6.4987L59.8207 4.20779L71.8362 0V23.4234L75.3895 20.852C76.9168 19.7299 77.8674 18.826 78.2414 18.1403C78.6155 17.4234 78.8025 16.6909 78.8025 15.9429C78.8025 15.2883 78.6311 14.6649 78.2882 14.0727C77.9765 13.4494 77.4778 12.9662 76.7921 12.6234V12.3896H86.1427C86.3921 12.7325 86.5168 13.1221 86.5168 13.5584C86.5168 14.213 86.1739 14.9143 85.4882 15.6623C84.8025 16.3792 83.3843 17.2052 81.2337 18.1403L78.3817 19.4026L88.5272 34.3169Z" fill="white"/><path d="M110.845 30.8104L110.892 30.8571C109.894 32.3532 108.601 33.5065 107.011 34.3169C105.422 35.1273 103.567 35.5325 101.447 35.5325C99.8267 35.5325 98.2838 35.252 96.8189 34.6909C95.354 34.1299 94.0605 33.3351 92.9384 32.3065C91.8475 31.2779 90.9904 30.0312 90.367 28.5662C89.7436 27.0701 89.4319 25.4494 89.4319 23.7039C89.4319 22.0208 89.7124 20.4156 90.2735 18.8883C90.8345 17.361 91.6293 16.0364 92.6579 14.9143C93.7176 13.761 94.9955 12.8571 96.4916 12.2026C98.0189 11.5481 99.6865 11.2208 101.494 11.2208C103.676 11.2208 105.453 11.7974 106.824 12.9507C108.227 14.0727 108.928 15.4909 108.928 17.2052C108.928 19.1688 108.18 20.9766 106.684 22.6286C105.219 24.2494 103.099 25.574 100.325 26.6026C101.666 27.9117 103.146 28.9714 104.767 29.7818C106.419 30.561 107.993 30.9507 109.489 30.9507C109.988 30.9507 110.44 30.9039 110.845 30.8104ZM97.1462 12.8571C96.554 12.8571 96.0865 13.1065 95.7436 13.6052C95.4007 14.1039 95.2293 14.774 95.2293 15.6156C95.2293 17.4545 95.6657 19.3247 96.5384 21.226C97.4423 23.1273 98.6111 24.826 100.045 26.3221C101.26 24.7636 101.868 22.7844 101.868 20.3844C101.868 18.9818 101.572 17.6883 100.98 16.5039C100.419 15.2883 99.7955 14.3844 99.1098 13.7922C98.4241 13.1688 97.7696 12.8571 97.1462 12.8571Z" fill="white"/><path d="M142.201 30.7169L142.248 30.7636C141.344 32.1974 140.097 33.3507 138.508 34.2234C136.949 35.0961 135.157 35.5325 133.131 35.5325C130.42 35.5325 128.44 34.7533 127.194 33.1948C125.978 31.6364 125.37 29.2987 125.37 26.1818V12.9039H121.77V12.8571L134.721 2.66494V12.1558H141.313V12.9039H134.721V23.7974C134.721 26.5091 135.079 28.426 135.796 29.5481C136.513 30.6701 137.729 31.2312 139.443 31.2312C140.44 31.2312 141.36 31.0597 142.201 30.7169Z" fill="white"/><path d="M169.574 34.3169H171.912V35.0649H158.353V34.3169H160.224V20.2442C160.224 18.4987 159.99 17.252 159.522 16.5039C159.086 15.7558 158.385 15.3818 157.418 15.3818C156.577 15.3818 155.642 15.6156 154.613 16.0831V34.3169H156.483V35.0649H142.925V34.3169H145.263V6.4987L142.598 4.20779L154.613 0V15.4286C156.733 13.5896 158.478 12.3896 159.85 11.8286C161.221 11.2675 162.452 10.987 163.543 10.987C165.507 10.987 167.003 11.6104 168.031 12.8571C169.06 14.0727 169.574 15.8649 169.574 18.2338V34.3169Z" fill="white"/><path d="M195.357 30.8104L195.404 30.8571C194.406 32.3532 193.113 33.5065 191.523 34.3169C189.934 35.1273 188.079 35.5325 185.959 35.5325C184.339 35.5325 182.796 35.252 181.331 34.6909C179.866 34.1299 178.572 33.3351 177.45 32.3065C176.359 31.2779 175.502 30.0312 174.879 28.5662C174.256 27.0701 173.944 25.4494 173.944 23.7039C173.944 22.0208 174.224 20.4156 174.785 18.8883C175.346 17.361 176.141 16.0364 177.17 14.9143C178.23 13.761 179.508 12.8571 181.004 12.2026C182.531 11.5481 184.198 11.2208 186.006 11.2208C188.188 11.2208 189.965 11.7974 191.336 12.9507C192.739 14.0727 193.44 15.4909 193.44 17.2052C193.44 19.1688 192.692 20.9766 191.196 22.6286C189.731 24.2494 187.611 25.574 184.837 26.6026C186.178 27.9117 187.658 28.9714 189.279 29.7818C190.931 30.561 192.505 30.9507 194.001 30.9507C194.5 30.9507 194.952 30.9039 195.357 30.8104ZM181.658 12.8571C181.066 12.8571 180.598 13.1065 180.256 13.6052C179.913 14.1039 179.741 14.774 179.741 15.6156C179.741 17.4545 180.178 19.3247 181.05 21.226C181.954 23.1273 183.123 24.826 184.557 26.3221C185.772 24.7636 186.38 22.7844 186.38 20.3844C186.38 18.9818 186.084 17.6883 185.492 16.5039C184.931 15.2883 184.308 14.3844 183.622 13.7922C182.936 13.1688 182.282 12.8571 181.658 12.8571Z" fill="white"/><path d="M13.0024 88.7792C11.444 88.7792 9.94786 88.5143 8.51409 87.9844C7.08032 87.4234 5.81799 86.6286 4.72708 85.6C3.63617 84.5714 2.77903 83.3247 2.15565 81.8597C1.56344 80.3948 1.26734 78.8052 1.26734 77.0909C1.26734 75.4078 1.56344 73.8026 2.15565 72.2753C2.77903 70.7169 3.65175 69.361 4.77383 68.2078C5.92708 67.0234 7.29851 66.1039 8.88812 65.4494C10.5089 64.7948 12.2699 64.4675 14.1712 64.4675C16.8206 64.4675 19.5011 64.9662 22.2128 65.9636L20.3894 79.0078H20.3427C18.192 74.9558 16.1349 71.8234 14.1712 69.6104C12.2076 67.3974 10.5245 66.2909 9.12188 66.2909C8.52968 66.2909 8.06214 66.5091 7.71929 66.9455C7.4076 67.3818 7.25175 68.0052 7.25175 68.8156C7.25175 70.6234 7.65695 72.4623 8.46734 74.3325C9.3089 76.1714 10.4154 77.8545 11.7868 79.3818C13.1582 80.8779 14.6699 82.0779 16.3219 82.9818C18.005 83.8545 19.6414 84.2909 21.231 84.2909C21.792 84.2909 22.2595 84.2286 22.6336 84.1039L22.6803 84.1506C21.6518 85.6779 20.2959 86.8312 18.6128 87.6104C16.9608 88.3896 15.0907 88.7792 13.0024 88.7792Z" fill="white"/><path d="M38.4154 88.7792C36.7634 88.7792 35.1426 88.4987 33.553 87.9377C31.9946 87.3455 30.6076 86.5039 29.392 85.413C28.2076 84.3221 27.2569 83.013 26.54 81.4857C25.8543 79.9584 25.5115 78.2909 25.5115 76.4831C25.5115 74.8623 25.8231 73.3195 26.4465 71.8545C27.0699 70.3584 27.9582 69.0649 29.1115 67.974C30.2647 66.8831 31.6361 66.026 33.2257 65.4026C34.8154 64.7792 36.5296 64.4675 38.3686 64.4675C40.2699 64.4675 42.0309 64.7481 43.6517 65.3091C45.3037 65.8701 46.7218 66.6805 47.9063 67.7403C49.0907 68.8 50.0102 70.0779 50.6647 71.574C51.3192 73.0701 51.6465 74.7065 51.6465 76.4831C51.6465 78.1974 51.366 79.8026 50.805 81.2987C50.2439 82.7948 49.4024 84.1039 48.2803 85.226C47.1894 86.3481 45.8024 87.2208 44.1192 87.8442C42.4361 88.4675 40.5348 88.7792 38.4154 88.7792ZM43.6517 87.0961C44.9296 87.0961 45.5686 86.3013 45.5686 84.7117C45.5686 83.7454 45.1322 82.2494 44.2595 80.2234C43.4179 78.1662 42.3426 76.0468 41.0335 73.8649C39.7556 71.6831 38.4309 69.8597 37.0595 68.3948C35.7192 66.8987 34.566 66.1506 33.5998 66.1506C33.0076 66.1506 32.54 66.3532 32.1972 66.7584C31.8855 67.1636 31.7296 67.7247 31.7296 68.4416C31.7296 69.5325 32.166 71.1221 33.0387 73.2104C33.9115 75.2987 35.0024 77.4182 36.3115 79.5688C37.6205 81.6883 38.9452 83.4805 40.2855 84.9455C41.6257 86.3792 42.7478 87.0961 43.6517 87.0961Z" fill="white"/><path d="M53.9385 88.3117V87.5636H56.2762V59.7455L53.6112 57.4545L65.6268 53.2468V87.5636H67.9645V88.3117H53.9385Z" fill="white"/><path d="M82.8857 88.7792C81.2338 88.7792 79.613 88.4987 78.0234 87.9377C76.4649 87.3455 75.0779 86.5039 73.8623 85.413C72.6779 84.3221 71.7273 83.013 71.0104 81.4857C70.3247 79.9584 69.9818 78.2909 69.9818 76.4831C69.9818 74.8623 70.2935 73.3195 70.9169 71.8545C71.5403 70.3584 72.4286 69.0649 73.5818 67.974C74.7351 66.8831 76.1065 66.026 77.6961 65.4026C79.2857 64.7792 81 64.4675 82.839 64.4675C84.7403 64.4675 86.5013 64.7481 88.1221 65.3091C89.774 65.8701 91.1922 66.6805 92.3766 67.7403C93.561 68.8 94.4805 70.0779 95.1351 71.574C95.7896 73.0701 96.1169 74.7065 96.1169 76.4831C96.1169 78.1974 95.8364 79.8026 95.2753 81.2987C94.7143 82.7948 93.8727 84.1039 92.7507 85.226C91.6597 86.3481 90.2727 87.2208 88.5896 87.8442C86.9065 88.4675 85.0052 88.7792 82.8857 88.7792ZM88.1221 87.0961C89.4 87.0961 90.039 86.3013 90.039 84.7117C90.039 83.7454 89.6026 82.2494 88.7299 80.2234C87.8883 78.1662 86.813 76.0468 85.5039 73.8649C84.226 71.6831 82.9013 69.8597 81.5299 68.3948C80.1896 66.8987 79.0364 66.1506 78.0701 66.1506C77.4779 66.1506 77.0104 66.3532 76.6675 66.7584C76.3559 67.1636 76.2 67.7247 76.2 68.4416C76.2 69.5325 76.6364 71.1221 77.5091 73.2104C78.3818 75.2987 79.4727 77.4182 80.7818 79.5688C82.0909 81.6883 83.4156 83.4805 84.7559 84.9455C86.0961 86.3792 87.2182 87.0961 88.1221 87.0961Z" fill="white"/><path d="M124.398 87.5636H126.736V88.3117H115.048V84.7117C112.679 86.426 110.918 87.5481 109.764 88.0779C108.611 88.5766 107.583 88.826 106.679 88.826C104.59 88.826 103.063 88.187 102.097 86.9091C101.131 85.6312 100.648 83.6052 100.648 80.8312V70.7792L97.9826 68.4883L109.998 64.2805V78.961C109.998 81.0182 110.17 82.4519 110.513 83.2623C110.855 84.0416 111.572 84.4312 112.663 84.4312C113.38 84.4312 114.175 84.2753 115.048 83.9636V70.5455L112.383 68.2545L124.398 64.0468V87.5636Z" fill="white"/><path d="M147.994 64.4208C148.306 64.4208 148.602 64.4675 148.883 64.561V76.9506H148.836C146.81 74.7065 145.096 73.0545 143.693 71.9948C142.322 70.9351 141.137 70.4831 140.14 70.639V87.5636H143.646V88.3117H128.452V87.5636H130.789V70.5922L128.124 68.3013L140.14 64.2805V70.1247C141.449 68.4104 142.82 67.039 144.254 66.0104C145.688 64.9507 146.935 64.4208 147.994 64.4208Z" fill="white"/><path d="M165.126 53.2468C166.186 53.2468 167.37 53.387 168.679 53.6675C169.988 53.9169 171.11 54.2442 172.045 54.6494L170.783 63.7662H170.736L166.949 58.2494C165.671 56.3481 164.814 55.1636 164.378 54.6961C163.973 54.2286 163.676 54.026 163.489 54.0883C163.271 54.1818 163.084 54.5247 162.928 55.1169C162.804 55.6779 162.741 56.9247 162.741 58.8571V65.4026H168.773V66.1506H162.741V87.5636H166.715V88.3117H151.053V87.5636H153.391V66.9455V66.1506H150.586V65.4026H153.437C153.562 63.3143 153.936 61.4909 154.56 59.9325C155.183 58.374 156.009 57.1117 157.037 56.1455C158.066 55.1481 159.266 54.4156 160.637 53.9481C162.009 53.4805 163.505 53.2468 165.126 53.2468Z" fill="white"/><path d="M194.939 87.5636H197.277V88.3117H185.588V84.7117C183.22 86.426 181.458 87.5481 180.305 88.0779C179.152 88.5766 178.123 88.826 177.22 88.826C175.131 88.826 173.604 88.187 172.638 86.9091C171.671 85.6312 171.188 83.6052 171.188 80.8312V70.7792L168.523 68.4883L180.539 64.2805V78.961C180.539 81.0182 180.71 82.4519 181.053 83.2623C181.396 84.0416 182.113 84.4312 183.204 84.4312C183.921 84.4312 184.716 84.2753 185.588 83.9636V70.5455L182.923 68.2545L194.939 64.0468V87.5636Z" fill="white"/><path d="M198.992 88.3117V87.5636H201.33V59.7455L198.665 57.4545L210.681 53.2468V87.5636H213.018V88.3117H198.992Z" fill="white"/><path d="M244.749 64.4675C247.18 64.4675 249.175 65.4493 250.734 67.413C252.292 69.3455 253.071 72.0571 253.071 75.548C253.071 77.5429 252.806 79.3662 252.276 81.0182C251.747 82.6701 250.983 84.0727 249.985 85.226C249.019 86.3792 247.866 87.2675 246.526 87.8909C245.217 88.4831 243.783 88.7792 242.224 88.7792C241.258 88.7792 240.276 88.6234 239.279 88.3117C238.282 88 237.393 87.5948 236.614 87.0961V99.252H240.354V100H224.926V99.252H227.263V70.4987L224.598 68.2078L236.614 64V68.6286C237.861 67.3507 239.201 66.3377 240.635 65.5896C242.069 64.8416 243.44 64.4675 244.749 64.4675ZM238.905 87.0026C240.152 87.0026 241.149 86.2234 241.897 84.6649C242.676 83.1065 243.066 80.9558 243.066 78.213C243.066 75.0649 242.692 72.7117 241.944 71.1532C241.227 69.5948 240.105 68.8156 238.578 68.8156C237.985 68.8156 237.331 68.9714 236.614 69.2831V86.3013C237.269 86.7688 238.032 87.0026 238.905 87.0026Z" fill="white"/><path d="M276.794 87.5636H279.132V88.3117H267.444V85.6467C264.981 87.7351 262.566 88.7792 260.197 88.7792C259.48 88.7792 258.717 88.639 257.906 88.3584C257.127 88.1091 256.457 87.6104 255.896 86.8623C255.366 86.0831 255.101 85.1636 255.101 84.1039C255.101 81.9844 256.176 80.239 258.327 78.8675C260.509 77.4649 263.548 76.5454 267.444 76.1091C267.444 73.5844 266.961 71.6675 265.994 70.3584C265.028 69.0494 263.641 68.3948 261.833 68.3948C260.774 68.3948 259.839 68.5507 259.028 68.8623C258.218 69.174 257.439 69.6104 256.691 70.1714L256.457 69.9377C258.078 68.1299 259.807 66.774 261.646 65.8701C263.485 64.9351 265.527 64.4675 267.771 64.4675C270.732 64.4675 272.976 65.3247 274.504 67.039C276.031 68.7221 276.794 71.2467 276.794 74.613V87.5636ZM266.368 85.1325L267.444 84.9922V76.7169C264.857 77.4649 263.563 79.148 263.563 81.7662C263.563 82.8571 263.797 83.6987 264.265 84.2909C264.763 84.8519 265.465 85.1325 266.368 85.1325Z" fill="white"/><path d="M299.583 83.9636L299.629 84.0104C298.725 85.4442 297.479 86.5974 295.889 87.4701C294.331 88.3429 292.538 88.7792 290.513 88.7792C287.801 88.7792 285.822 88 284.575 86.4416C283.359 84.8831 282.751 82.5454 282.751 79.4286V66.1506H279.151V66.1039L292.102 55.9117V65.4026H298.694V66.1506H292.102V77.0442C292.102 79.7558 292.461 81.6727 293.177 82.7948C293.894 83.9169 295.11 84.4779 296.824 84.4779C297.822 84.4779 298.741 84.3065 299.583 83.9636Z" fill="white"/><path d="M326.956 87.5636H329.293V88.3117H315.735V87.5636H317.605V73.4909C317.605 71.7454 317.371 70.4987 316.904 69.7506C316.467 69.0026 315.766 68.6286 314.8 68.6286C313.958 68.6286 313.023 68.8623 311.995 69.3299V87.5636H313.865V88.3117H300.306V87.5636H302.644V59.7455L299.979 57.4545L311.995 53.2468V68.6753C314.114 66.8364 315.859 65.6364 317.231 65.0753C318.602 64.5143 319.833 64.2338 320.924 64.2338C322.888 64.2338 324.384 64.8571 325.413 66.1039C326.441 67.3195 326.956 69.1117 326.956 71.4805V87.5636Z" fill="white"/></svg>